<?xml version="1.0" standalone="no"?><!DOCTYPE svg PUBLIC "-//W3C//DTD SVG 1.1//EN" "http://www.w3.org/Graphics/SVG/1.1/DTD/svg11.dtd"><svg t="1670458953669" class="icon" viewBox="0 0 1024 1024" version="1.1" xmlns="http://www.w3.org/2000/svg" p-id="6567" xmlns:xlink="http://www.w3.org/1999/xlink" width="200" height="200"><path d="M512.2 64c-247.4 0-448 200.6-448 448s200.6 448 448 448 448-200.6 448-448-200.6-448-448-448z m0 853.3c-223.5 0-405.3-181.8-405.3-405.3s181.8-405.3 405.3-405.3S917.5 288.5 917.5 512 735.7 917.3 512.2 917.3z" fill="#515151" p-id="6568"></path><path d="M512.2 576c82.5 0 149.3-66.9 149.3-149.3 0-82.5-66.9-149.3-149.3-149.3-82.5 0-149.3 66.9-149.3 149.3S429.7 576 512.2 576z m0-256c58.8 0 106.7 47.9 106.7 106.7S571 533.3 512.2 533.3s-106.7-47.9-106.7-106.7S453.4 320 512.2 320zM512.2 618.7c-79.2 0-149.9 36.1-196.8 92.6-11.7 14.1-1.9 35.4 16.4 35.4 6.4 0 12.4-3 16.5-8 39.1-47.2 98-77.4 163.9-77.4s124.8 30.2 163.9 77.4c4.1 5 10 8 16.5 8 18.3 0 28-21.3 16.4-35.4-46.9-56.6-117.6-92.6-196.8-92.6z" fill="#515151" p-id="6569"></path></svg>